<?xml version="1.0" encoding="utf-8"?>
<!-- Generator: Adobe Illustrator 18.1.1, SVG Export Plug-In . SVG Version: 6.00 Build 0)  -->
<svg version="1.1" id="Capa_1" xmlns="http://www.w3.org/2000/svg" xmlns:xlink="http://www.w3.org/1999/xlink" x="0px" y="0px"
	 viewBox="197 332 424 141" enable-background="new 197 332 424 141" xml:space="preserve">
<g>
	<path fill="#009999" d="M534.3,379.2v-14h-61.6l-10.8,38.8l-10.2-39.2h-21.9l2.7,12.5c-6.2-10.8-18.7-12.2-18.7-12.2h-36.2v67.6
		l0,0l-0.8-14l-2.3-1.3l2.3,1.3l-7.1-5.6l-7.8-6.9c1.2-3.8,2-8.2,2-13c0-9.3-2.7-16.6-7.3-22.8c-2.9-3.8-6.7-9.7-10.4-9.7
		c-3.7,0-7.6,5.8-10.6,9.7c-4.6,6.2-7.1,13.4-7.1,22.8c0,4.6,0.7,8.8,2,12.5l-13.8,13l0,0l-0.7,14v-68h-26.7l-11,31.6l-9.9-31.6
		h-27.6V440l22.3-0.2v-27.2L273,440h11.1l10.8-27.8v27.6h40.9l3.7-7.1H356l2.2,7.1h43.3v-25.2l15.2,25.2h21.4l-15.5-28.9
		c12-6.1,14.3-19.3,14.3-19.3l13,48.2h24.5l20.5-72.6v72.7h39.7v-15.2h-17.9v-14.4h17v-15.7h-17.4v-15.5L534.3,379.2L534.3,379.2z
		 M346.2,379.8c3.8,0,7,2,7,4.4s-3.1,4.4-7,4.4s-7-2-7-4.4S342.4,379.8,346.2,379.8z M346.2,393.7c3.8,0,7,2,7,4.4s-3.1,4.4-7,4.4
		s-7-2-7-4.4S342.4,393.7,346.2,393.7z"/>
	<polygon fill="#009999" points="542.2,364.5 562.6,364.5 562.6,425 580,425 580,440.2 542.2,440.2 	"/>
	<path fill="#FFFFFF" d="M400.7,400.5c14.6-0.6,13.4-11.9,13.4-11.9c-2.2-11.1-13.4-10.6-13.4-10.6V400.5z"/>
</g>
</svg>
